<svg width="110" height="53" viewBox="0 0 110 53" fill="none" xmlns="http://www.w3.org/2000/svg">
<g clip-path="url(#clip0_3_1273)">
<path d="M106.385 0.0926925L74.052 8.76542C73.3415 8.97521 72.7137 9.39925 72.255 9.97921C71.7962 10.5592 71.5291 11.2665 71.4902 12.004V17.4646L108.94 7.16267V1.95705C108.94 0.549675 107.8 -0.288126 106.385 0.0926925Z" fill="url(#paint0_linear_3_1273)"/>
<path d="M71.5003 27.3991C71.5003 28.8097 72.6466 29.6442 74.0621 29.2634L106.385 20.594C107.094 20.382 107.72 19.9567 108.178 19.3764C108.635 18.7961 108.901 18.089 108.94 17.3521V9.79199L71.4937 20.0906L71.5003 27.3991Z" fill="url(#paint1_linear_3_1273)"/>
<g opacity="0.15">
<mask id="mask0_3_1273" style="mask-type:luminance" maskUnits="userSpaceOnUse" x="71" y="9" width="38" height="40">
<path d="M108.94 26.1904V46.8374C108.94 48.2514 107.794 49.0858 106.375 48.705L74.052 40.0522C73.3408 39.8426 72.7123 39.4182 72.2535 38.8375C71.7946 38.2568 71.5279 37.5485 71.4902 36.8102V9.40125C71.4902 11.7193 73.3775 14.1135 75.71 14.7393L106.372 22.9484C107.084 23.1573 107.713 23.5813 108.173 24.162C108.633 24.7427 108.901 25.4515 108.94 26.1904Z" fill="white"/>
</mask>
<g mask="url(#mask0_3_1273)">
<path d="M106.385 0.0926925L74.052 8.76542C73.3415 8.97521 72.7137 9.39925 72.255 9.97921C71.7962 10.5592 71.5291 11.2665 71.4902 12.004V17.4646L108.94 7.16267V1.95705C108.94 0.549675 107.8 -0.288126 106.385 0.0926925Z" fill="black"/>
<path d="M71.5003 27.3991C71.5003 28.8097 72.6466 29.6442 74.0621 29.2634L106.385 20.594C107.094 20.382 107.72 19.9567 108.178 19.3764C108.635 18.7961 108.901 18.089 108.94 17.3521V9.79199L71.4937 20.0906L71.5003 27.3991Z" fill="black"/>
</g>
</g>
<path d="M108.94 30.3959V51.0429C108.94 52.4569 107.794 53.2914 106.375 52.9106L74.052 44.2544C73.3408 44.0459 72.7122 43.6222 72.2532 43.042C71.7943 42.4618 71.5276 41.7537 71.4902 41.0158V13.6068C71.4902 15.9248 73.3775 18.319 75.71 18.9416L106.381 27.1639C107.09 27.3739 107.717 27.7972 108.175 28.3758C108.633 28.9544 108.9 29.66 108.94 30.3959Z" fill="url(#paint2_linear_3_1273)"/>
<path d="M96.3374 38.0222C96.3374 35.9062 98.0619 34.6545 100.185 35.234L108.608 37.5222C108.994 37.6387 109.335 37.8709 109.584 38.1873C109.833 38.5037 109.979 38.8889 110 39.2905V44.1882C110.006 44.3571 109.971 44.5249 109.896 44.6766C109.821 44.8283 109.71 44.9593 109.572 45.0577C109.434 45.156 109.274 45.2189 109.106 45.2405C108.937 45.2621 108.766 45.2419 108.608 45.1816L100.185 42.8934C98.0619 42.3271 96.3374 40.1416 96.3374 38.0222Z" fill="url(#paint3_linear_3_1273)"/>
<path d="M101.901 40.779C102.592 40.1777 102.509 38.9564 101.717 38.0512C100.924 37.146 99.7206 36.8997 99.0294 37.5011C98.3382 38.1025 98.4206 39.3238 99.2135 40.2289C100.006 41.1341 101.209 41.3804 101.901 40.779Z" fill="white"/>
<path d="M27.4851 32.406C26.8415 32.4118 26.1991 32.3519 25.5679 32.2272C25.0227 32.118 24.4973 31.9271 24.0095 31.6609C23.5408 31.4009 23.1186 31.0652 22.7602 30.6675C22.3741 30.2282 22.0489 29.7393 21.7933 29.2138C19.4608 31.3618 15.9687 32.4358 11.317 32.4358C8.65885 32.4181 6.46257 32.087 4.72815 31.4424C2.99372 30.7977 1.71449 29.8142 0.890474 28.4919C0.540155 27.8729 0.291149 27.2021 0.152843 26.505C0.0510385 26.0114 -0.000171759 25.5088 4.3279e-07 25.0049C4.3279e-07 24.8128 2.27753e-07 24.4949 0.0465175 24.0545C0.100639 23.4902 0.222224 22.9343 0.408688 22.3988C0.620034 21.7508 0.901924 21.1278 1.24932 20.541L3.70477 22.0775C3.46742 22.4662 3.26293 22.8738 3.0934 23.2962C2.93726 23.6858 2.83444 24.0945 2.78771 24.5115C2.77168 24.6633 2.76391 24.8158 2.76445 24.9685C2.76805 25.2632 2.7992 25.557 2.85749 25.846C2.94694 26.2359 3.10926 26.6055 3.33595 26.9355C3.60313 27.3617 3.97625 27.7118 4.41914 27.9521C4.97262 28.2583 5.56494 28.4889 6.18015 28.6376C6.94437 28.8264 7.7219 28.957 8.50601 29.0283C9.37433 29.1144 10.308 29.1575 11.307 29.1575C12.2141 29.1575 13.078 29.1243 13.892 29.0548C14.6559 28.9931 15.4151 28.8825 16.1647 28.7237C16.8153 28.5915 17.4526 28.4009 18.0686 28.1541C18.5979 27.9461 19.0913 27.6567 19.5306 27.2964C19.892 27.025 20.1987 26.688 20.4344 26.303C20.6638 25.9225 20.8562 25.5211 21.0092 25.1042C21.1621 24.6828 21.2897 24.2526 21.3913 23.8161C21.491 23.3756 21.6006 22.9518 21.7236 22.5478L24.6508 23.3326C24.4922 23.7803 24.3645 24.2384 24.2687 24.7035C24.1868 25.1091 24.1445 25.5217 24.1425 25.9354V26.346C24.1573 26.6578 24.2177 26.9657 24.3219 27.26C24.4358 27.6294 24.6311 27.9688 24.8934 28.2534C25.1829 28.5511 25.5378 28.7778 25.93 28.9157C26.4366 29.0883 26.9698 29.1701 27.505 29.1575H27.9635V32.406H27.4851ZM12.1443 19.5145L9.98127 21.6702L7.79164 19.5012L9.95469 17.3322L12.1443 19.5145ZM16.9555 19.5145L14.7925 21.6835L12.6029 19.5012L14.7659 17.3455L16.9555 19.5145Z" fill="white"/>
<path d="M39.5131 29.1508V32.3994H27.4585V29.1508H39.5131Z" fill="white"/>
<path d="M39.0048 29.1508H39.9717C40.3644 29.1617 40.7561 29.108 41.1313 28.9919C41.4146 28.9009 41.6628 28.7251 41.8423 28.4885C42.0272 28.2264 42.1478 27.9247 42.1945 27.6077C42.2626 27.1773 42.2937 26.7419 42.2876 26.3063C42.2876 26.1142 42.2876 25.8824 42.2876 25.6108C42.2876 25.3393 42.2876 24.975 42.2876 24.5114C42.2876 24.0478 42.2643 23.4683 42.2311 22.763C42.1979 22.0576 42.1414 21.1702 42.065 20.1138C42.0317 19.2087 41.9941 18.3422 41.952 17.5143C41.9088 16.6831 41.8689 15.9447 41.8291 15.2923C41.7892 14.64 41.7593 14.1035 41.7294 13.6796C41.6995 13.2558 41.6795 13.0173 41.6729 12.9081L44.8793 12.2226C44.9723 13.216 45.0587 14.385 45.1418 15.7096C45.2248 17.0342 45.2946 18.468 45.3644 19.9979C45.3976 21.1503 45.4275 22.0941 45.4508 22.8358C45.474 23.5776 45.5006 24.1869 45.5239 24.6737C45.5471 25.1605 45.5571 25.5579 45.5671 25.8658C45.577 26.1738 45.5671 26.4751 45.5671 26.7632C45.5785 27.5593 45.4664 28.3524 45.2348 29.1144C45.042 29.7833 44.6905 30.3961 44.2099 30.901C43.7293 31.406 43.1337 31.7881 42.4737 32.0152C41.6631 32.2947 40.8092 32.4281 39.9518 32.4093H38.9849L39.0048 29.1508Z" fill="white"/>
<path d="M51.4914 12.2193C51.7129 13.8353 51.8624 15.3806 51.9399 16.8554C52.0174 18.3301 52.0684 19.765 52.0928 21.1603C52.1094 22.3524 52.116 23.4584 52.1094 24.4717C52.1027 25.485 52.1094 26.4321 52.0795 27.3063C52.0496 28.1806 52.0363 28.9985 52.003 29.7568C51.9698 30.5151 51.9333 31.2205 51.9 31.8828L48.5774 32.3894C48.7568 29.5968 48.8465 27.1308 48.8465 24.9916C48.8465 24.1306 48.8332 23.3226 48.8066 22.5676C48.7402 20.8368 48.6638 19.2065 48.5774 17.6766C48.491 16.1467 48.3802 14.6863 48.2451 13.2955L51.4914 12.2193Z" fill="white"/>
<path d="M54.1396 38.1149C55.295 37.8911 56.4265 37.5584 57.5188 37.1215C58.4384 36.7568 59.3161 36.2949 60.137 35.7439C60.8129 35.2927 61.4195 34.7462 61.9379 34.1213C62.3624 33.6162 62.677 33.0287 62.8616 32.396C62.1749 32.396 61.5038 32.374 60.8481 32.3298C60.2262 32.2918 59.6077 32.21 58.9974 32.0848C58.4449 31.9706 57.9068 31.7962 57.3925 31.5649C56.92 31.35 56.4927 31.0478 56.1332 30.6741C55.7706 30.2939 55.4912 29.8429 55.3125 29.3495C55.104 28.7459 55.005 28.1101 55.0202 27.4719C55.0222 26.9823 55.0734 26.4942 55.173 26.0149C55.2725 25.5024 55.4193 25.0003 55.6116 24.5148C55.7994 24.0321 56.0354 23.5695 56.316 23.1339C56.5883 22.7087 56.9144 22.3203 57.2862 21.9782C57.6418 21.6485 58.0507 21.3809 58.4957 21.1867C58.9444 20.9886 59.4303 20.8882 59.9211 20.892C61.2324 20.892 62.433 21.4759 63.5228 22.6438C63.9257 23.0929 64.2778 23.5849 64.5728 24.1108C64.8877 24.6687 65.1513 25.2539 65.3603 25.8592C65.5813 26.4942 65.748 27.1467 65.8587 27.8097C65.973 28.4881 66.0307 29.1748 66.0314 29.8628C66.0385 30.8906 65.8987 31.9142 65.6161 32.9027C65.3522 33.8206 64.9619 34.6977 64.4565 35.5088C63.9635 36.3016 63.3668 37.0254 62.6822 37.6613C61.9908 38.3019 61.2309 38.8649 60.4162 39.3402C59.58 39.8295 58.6974 40.2355 57.7813 40.5522C56.8453 40.8783 55.8825 41.122 54.9039 41.2807L54.1396 38.1149ZM59.9211 24.1571C59.6594 24.172 59.4092 24.2694 59.2067 24.4353C58.9375 24.6377 58.7011 24.88 58.5056 25.1539C58.29 25.4543 58.1126 25.7802 57.9773 26.1241C57.8437 26.4548 57.7739 26.8075 57.7713 27.1639C57.7589 27.4764 57.8462 27.7848 58.0205 28.0448C58.1863 28.279 58.4033 28.4727 58.6551 28.611C58.9312 28.7629 59.2277 28.8744 59.5356 28.9422C59.8679 29.0117 60.2002 29.0647 60.5092 29.1011L61.094 29.1243C61.3066 29.1243 61.5259 29.1243 61.7585 29.1442H62.423H63.0444C63.0145 28.7983 62.9533 28.4558 62.8616 28.1209C62.76 27.7437 62.6346 27.3732 62.4862 27.0116C62.3338 26.644 62.1596 26.2857 61.9645 25.9387C61.7817 25.616 61.5705 25.3101 61.3332 25.0247C61.1325 24.7807 60.8988 24.5656 60.6388 24.3856C60.4289 24.2375 60.1782 24.1576 59.9211 24.1571Z" fill="white"/>
<path d="M1.45185 40.2806C1.57259 40.4155 1.71664 40.5277 1.87715 40.6118C2.03183 40.6889 2.20258 40.7286 2.37555 40.7277C2.55846 40.7357 2.7384 40.6795 2.88392 40.5687C2.94807 40.5165 2.99916 40.4501 3.03318 40.3748C3.0672 40.2995 3.08321 40.2174 3.07996 40.1349C3.08383 39.9941 3.03664 39.8565 2.94705 39.7475C2.84771 39.6387 2.7266 39.5518 2.59152 39.4925C2.43536 39.4163 2.25926 39.3369 2.01338 39.2508C1.89377 39.2077 1.75421 39.1481 1.59805 39.0753C1.43783 38.9974 1.28821 38.8994 1.15281 38.7838C1.01642 38.662 0.903777 38.516 0.820546 38.3534C0.725512 38.161 0.678764 37.9485 0.684317 37.7341C0.677064 37.4685 0.755053 37.2075 0.906936 36.989C1.05685 36.7752 1.2641 36.6076 1.50501 36.5056C1.77383 36.3874 2.06516 36.3286 2.35894 36.3334C2.64541 36.3271 2.92986 36.3824 3.19293 36.4956C3.41376 36.5948 3.61342 36.7353 3.78104 36.9096C3.92715 37.0638 4.04923 37.2391 4.14321 37.4295L3.33248 37.8798C3.26504 37.7603 3.18362 37.6491 3.08992 37.5487C2.99294 37.4526 2.88067 37.3731 2.75766 37.3136C2.62986 37.2499 2.48849 37.2181 2.34565 37.2208C2.18034 37.2097 2.01681 37.2605 1.88712 37.3632C1.83924 37.4042 1.80079 37.455 1.77441 37.5122C1.74803 37.5693 1.73434 37.6315 1.73428 37.6944C1.73214 37.8168 1.77735 37.9354 1.86054 38.0255C1.96756 38.1378 2.09496 38.2288 2.236 38.2938C2.44298 38.3922 2.65606 38.4774 2.87395 38.5487C3.03777 38.6066 3.19574 38.6798 3.34577 38.7673C3.49775 38.8518 3.63747 38.9565 3.7611 39.0786C3.8849 39.203 3.9831 39.3504 4.05017 39.5124C4.20033 39.9122 4.186 40.3549 4.0103 40.7442C3.91561 40.9342 3.77936 41.1005 3.61158 41.231C3.44112 41.3635 3.24887 41.4654 3.04341 41.5324C2.82908 41.6032 2.60467 41.639 2.37887 41.6383C2.08183 41.64 1.78766 41.5803 1.51498 41.4628C1.25339 41.3493 1.01642 41.1862 0.817224 40.9827C0.625469 40.7899 0.46815 40.5659 0.352051 40.3204L1.08968 39.8005C1.19306 39.9728 1.31446 40.1338 1.45185 40.2806Z" fill="white"/>
<path d="M7.14713 36.436V41.4893H6.09717V36.436H7.14713Z" fill="white"/>
<path d="M13.9353 36.436V41.7344L10.3269 38.3534V41.486H9.33008V36.1877L12.9385 39.572V36.436H13.9353Z" fill="white"/>
<path d="M17.1814 39.827C17.3258 40.0678 17.5323 40.2656 17.7795 40.3999C18.0264 40.5327 18.303 40.6011 18.5836 40.5986C18.994 40.6095 19.3978 40.4939 19.7398 40.2674C19.8839 40.1674 20.0155 40.0507 20.1319 39.9197V41.0721C19.9318 41.2338 19.7076 41.3634 19.4674 41.4563C19.1696 41.5541 18.8571 41.6001 18.5437 41.592C18.1763 41.5956 17.8113 41.5316 17.4671 41.4033C17.1467 41.2856 16.8545 41.1026 16.609 40.8659C16.3636 40.6293 16.1704 40.3443 16.0417 40.029C15.7758 39.344 15.7758 38.5848 16.0417 37.8997C16.1704 37.5845 16.3636 37.2994 16.609 37.0628C16.8545 36.8262 17.1467 36.6432 17.4671 36.5255C17.8113 36.3972 18.1763 36.3332 18.5437 36.3367C18.8574 36.328 19.1702 36.3751 19.4674 36.4758C19.7074 36.5675 19.9317 36.696 20.1319 36.8566V38.019C20.0146 37.8937 19.883 37.7826 19.7398 37.6878C19.5823 37.5782 19.41 37.4913 19.2282 37.4295C19.0197 37.3642 18.802 37.3329 18.5836 37.3368C18.303 37.3343 18.0264 37.4026 17.7795 37.5355C17.5334 37.6682 17.327 37.8636 17.1814 38.1017C17.0312 38.3676 16.9523 38.6675 16.9523 38.9727C16.9523 39.2778 17.0312 39.5777 17.1814 39.8436V39.827Z" fill="white"/>
<path d="M23.2453 36.436V41.4893H22.2485V36.436H23.2453ZM22.9131 36.436H25.4715V37.3103H22.9131V36.436ZM22.9131 38.3766H25.3253V39.2375H22.9131V38.3766ZM22.9131 40.6151H25.4715V41.4893H22.9131V40.6151Z" fill="white"/>
<path d="M32.7347 39.0852C32.852 38.9606 32.9629 38.8302 33.067 38.6945C33.1546 38.5853 33.2251 38.4636 33.2763 38.3335C33.3254 38.2149 33.3502 38.0877 33.3494 37.9593C33.3496 37.8676 33.3327 37.7767 33.2996 37.6911C33.2652 37.6051 33.2131 37.5273 33.1467 37.4626C33.0771 37.3919 32.9933 37.3366 32.9009 37.3003C32.7958 37.2563 32.6826 37.2349 32.5686 37.2374C32.4056 37.2335 32.245 37.2772 32.1067 37.3633C31.9769 37.4529 31.8745 37.5767 31.811 37.7209C31.7379 37.8891 31.7017 38.0708 31.7047 38.254H30.6913C30.6865 37.9172 30.7604 37.5839 30.9073 37.2805C31.051 36.9948 31.2735 36.7559 31.5485 36.5917C31.8648 36.4123 32.2249 36.324 32.5885 36.3367C32.862 36.3311 33.1339 36.3783 33.3893 36.4758C33.6027 36.5586 33.7971 36.6837 33.9608 36.8434C34.1033 36.988 34.2162 37.159 34.2931 37.3467C34.3645 37.5201 34.4017 37.7056 34.4027 37.8931C34.4047 38.1582 34.3384 38.4193 34.21 38.6514C34.0743 38.8919 33.9004 39.1089 33.695 39.2938L32.3659 40.5356H34.5124V41.4827H30.4321L32.7347 39.0852Z" fill="white"/>
<path d="M36.4731 37.5719C36.6239 37.2102 36.8723 36.8973 37.1908 36.6679C37.508 36.4584 37.8801 36.3467 38.2607 36.3467C38.6412 36.3467 39.0133 36.4584 39.3306 36.6679C39.6479 36.8968 39.8943 37.2101 40.0416 37.5719C40.3784 38.4653 40.3784 39.4502 40.0416 40.3436C39.8944 40.7063 39.648 41.0207 39.3306 41.2509C39.0133 41.4604 38.6412 41.5721 38.2607 41.5721C37.8801 41.5721 37.508 41.4604 37.1908 41.2509C36.8722 41.0202 36.6238 40.7062 36.4731 40.3436C36.132 39.451 36.132 38.4645 36.4731 37.5719ZM37.2971 39.6548C37.3366 39.846 37.4073 40.0295 37.5064 40.1979C37.5911 40.3315 37.7046 40.4446 37.8387 40.529C37.9639 40.6111 38.1109 40.6538 38.2607 40.6516C38.4115 40.6538 38.5596 40.6112 38.686 40.529C38.8208 40.4455 38.9345 40.3322 39.0182 40.1979C39.1173 40.0295 39.1881 39.846 39.2276 39.6548C39.279 39.4266 39.3035 39.1932 39.3007 38.9594C39.3033 38.7245 39.2788 38.49 39.2276 38.2607C39.1881 38.0705 39.1173 37.8881 39.0182 37.7209C38.9365 37.5796 38.8227 37.4594 38.686 37.3699C38.559 37.2892 38.4113 37.2466 38.2607 37.2474C38.1111 37.2467 37.9645 37.2893 37.8387 37.3699C37.7027 37.4603 37.5891 37.5803 37.5064 37.7209C37.4073 37.8881 37.3366 38.0705 37.2971 38.2607C37.2459 38.49 37.2214 38.7245 37.224 38.9594C37.2212 39.1932 37.2457 39.4266 37.2971 39.6548Z" fill="white"/>
<path d="M42.2176 37.5719C42.3661 37.2089 42.615 36.8954 42.9353 36.6678C43.2444 36.4481 43.6156 36.3321 43.9952 36.3367C44.3813 36.3302 44.7595 36.4461 45.0751 36.6678C45.3906 36.8979 45.6356 37.2109 45.7828 37.5719C46.1239 38.4645 46.1239 39.4509 45.7828 40.3436C45.6357 40.7055 45.3907 41.0196 45.0751 41.2509C44.7588 41.4712 44.3811 41.587 43.9952 41.582C43.6158 41.5851 43.2451 41.4692 42.9353 41.2509C42.6149 41.0221 42.366 40.7075 42.2176 40.3436C41.8721 39.4517 41.8721 38.4637 42.2176 37.5719ZM43.0383 39.6548C43.081 39.8451 43.1515 40.028 43.2476 40.1979C43.3332 40.3307 43.4465 40.4437 43.5799 40.529C43.7066 40.6091 43.8535 40.6516 44.0035 40.6516C44.1535 40.6516 44.3005 40.6091 44.4272 40.529C44.561 40.4444 44.6745 40.3313 44.7594 40.1979C44.8556 40.028 44.9261 39.8451 44.9688 39.6548C45.0185 39.4263 45.043 39.1931 45.0419 38.9594C45.0428 38.7245 45.0183 38.4902 44.9688 38.2606C44.9263 38.0714 44.8557 37.8894 44.7594 37.7209C44.6766 37.5805 44.563 37.4605 44.4272 37.3699C44.3005 37.2898 44.1535 37.2472 44.0035 37.2472C43.8535 37.2472 43.7066 37.2898 43.5799 37.3699C43.4447 37.4612 43.3313 37.5811 43.2476 37.7209C43.1513 37.8894 43.0807 38.0714 43.0383 38.2606C42.9887 38.4902 42.9642 38.7245 42.9652 38.9594C42.964 39.1931 42.9885 39.4263 43.0383 39.6548Z" fill="white"/>
<path d="M48.3315 41.4695L49.9629 39.5654L50.1423 39.4991C50.0426 39.6118 49.9156 39.6973 49.7735 39.7475C49.6263 39.7932 49.4725 39.8145 49.3183 39.8104C49.1241 39.8097 48.9321 39.7703 48.7535 39.6945C48.3706 39.5316 48.0666 39.2263 47.9062 38.8435C47.8191 38.6335 47.775 38.4083 47.7766 38.1812C47.7668 37.8318 47.8579 37.487 48.0391 37.1877C48.2111 36.9176 48.4565 36.7017 48.7468 36.5652C49.0578 36.4172 49.3991 36.3435 49.7436 36.3499C50.0881 36.3443 50.4292 36.418 50.7404 36.5652C51.0291 36.7028 51.2732 36.9185 51.4448 37.1877C51.627 37.4867 51.7192 37.8315 51.7106 38.1812C51.713 38.4208 51.6631 38.6581 51.5644 38.8766C51.4696 39.0884 51.3503 39.2884 51.2089 39.4726L49.6672 41.4794L48.3315 41.4695ZM50.5477 37.6712C50.47 37.5321 50.355 37.4174 50.2154 37.3401C50.067 37.2618 49.9016 37.2208 49.7336 37.2208C49.5657 37.2208 49.4003 37.2618 49.2519 37.3401C49.1123 37.4174 48.9972 37.5321 48.9196 37.6712C48.8343 37.8239 48.7919 37.9966 48.7966 38.1712C48.7928 38.3458 48.8352 38.5183 48.9196 38.6713C48.9985 38.8094 49.1132 38.9238 49.2519 39.0024C49.3994 39.0836 49.5651 39.1262 49.7336 39.1262C49.9021 39.1262 50.0679 39.0836 50.2154 39.0024C50.354 38.9238 50.4688 38.8094 50.5477 38.6713C50.632 38.5183 50.6744 38.3458 50.6706 38.1712C50.6754 37.9966 50.6329 37.8239 50.5477 37.6712Z" fill="white"/>
</g>
<defs>
<linearGradient id="paint0_linear_3_1273" x1="71.5002" y1="8.73231" x2="108.947" y2="8.73231" gradientUnits="userSpaceOnUse">
<stop stop-color="#5BB9FD"/>
<stop offset="1" stop-color="#8E88FF"/>
</linearGradient>
<linearGradient id="paint1_linear_3_1273" x1="71.5003" y1="19.5741" x2="108.947" y2="19.5741" gradientUnits="userSpaceOnUse">
<stop stop-color="#5BB9FD"/>
<stop offset="1" stop-color="#8E88FF"/>
</linearGradient>
<linearGradient id="paint2_linear_3_1273" x1="71.5002" y1="33.3034" x2="108.947" y2="33.3034" gradientUnits="userSpaceOnUse">
<stop stop-color="#5BBAFD"/>
<stop offset="1" stop-color="#36EDFD"/>
</linearGradient>
<linearGradient id="paint3_linear_3_1273" x1="96.3374" y1="40.1714" x2="110" y2="40.1714" gradientUnits="userSpaceOnUse">
<stop stop-color="#5BB9FD"/>
<stop offset="1" stop-color="#8E88FF"/>
</linearGradient>
<clipPath id="clip0_3_1273">
<rect width="110" height="53" fill="white"/>
</clipPath>
</defs>
</svg>
